<svg width="12" height="13" viewBox="0 0 12 13" fill="none" xmlns="http://www.w3.org/2000/svg">
<path fill-rule="evenodd" clip-rule="evenodd" d="M0.15625 11.8438C0.0520828 11.7604 0 11.6458 0 11.5C0 11.3542 0.0520828 11.2396 0.15625 11.1562L10.2812 1H6.5C6.35417 1 6.23438 0.953125 6.14062 0.859375C6.04687 0.765625 6 0.645834 6 0.5C6 0.354166 6.04687 0.234375 6.14062 0.140625C6.23438 0.0468745 6.35417 0 6.5 0H11.5C11.5625 0 11.625 0.0104166 11.6875 0.03125C11.8125 0.0937503 11.9062 0.187499 11.9688 0.3125C11.9896 0.375 12 0.4375 12 0.5V5.5C12 5.64583 11.9531 5.76562 11.8594 5.85938C11.7656 5.95313 11.6458 6 11.5 6C11.3542 6 11.2344 5.95313 11.1406 5.85938C11.0469 5.76562 11 5.64583 11 5.5V1.71875L0.84375 11.8438C0.614582 12.0938 0.385418 12.0938 0.15625 11.8438Z" fill="white"/>
</svg>
